HIERARCHY
ROOT hip
{
	OFFSET 0.000000 0.000000 0.000000 
	CHANNELS 6 Xposition Yposition Zposition Xrotation Zrotation Yrotation
	JOINT abdomen
	{
		OFFSET 0.000000 3.402643 0.000000 
		CHANNELS 3 Xrotation Zrotation Yrotation
		JOINT chest
		{
			OFFSET 0.000000 8.438565 -0.680529 
			CHANNELS 3 Xrotation Zrotation Yrotation
			JOINT neck
			{
				OFFSET 0.000000 10.207942 -0.272212 
				CHANNELS 3 Xrotation Zrotation Yrotation
				JOINT head
				{
					OFFSET 0.000000 3.130431 0.000000 
					CHANNELS 3 Xrotation Zrotation Yrotation
					End Site
					{
						OFFSET 0.000000 3.130435 0.000000 
					}
				}
			}
			JOINT lCollar
			{
				OFFSET 3.470700 6.669187 -0.816635 
				CHANNELS 3 Yrotation Zrotation Xrotation
				JOINT lShldr
				{
					OFFSET 3.198488 0.000000 0.000000 
					CHANNELS 3 Zrotation Yrotation Xrotation
					JOINT lForeArm
					{
						OFFSET 10.139888 0.000000 0.000000 
						CHANNELS 3 Yrotation Zrotation Xrotation
						JOINT lHand
						{
							OFFSET 8.370511 0.000000 0.000000 
							CHANNELS 3 Zrotation Yrotation Xrotation
							End Site
							{
								OFFSET 4.083176 0.000000 0.000000 
							}
						}
					}
				}
			}
			JOINT rCollar
			{
				OFFSET -3.470700 6.669187 -0.816635 
				CHANNELS 3 Yrotation Zrotation Xrotation
				JOINT rShldr
				{
					OFFSET -3.198488 0.000000 0.000000 
					CHANNELS 3 Zrotation Yrotation Xrotation
					JOINT rForeArm
					{
						OFFSET -10.139888 0.000000 0.000000 
						CHANNELS 3 Yrotation Zrotation Xrotation
						JOINT rHand
						{
							OFFSET -8.370511 0.000000 0.000000 
							CHANNELS 3 Zrotation Yrotation Xrotation
							End Site
							{
								OFFSET -4.083176 0.000000 0.000000 
							}
						}
					}
				}
			}
		}
	}
	JOINT lThigh
	{
		OFFSET 5.308129 -1.633274 1.361059 
		CHANNELS 3 Xrotation Zrotation Yrotation
		JOINT lShin
		{
			OFFSET -2.041588 -20.007561 0.000000 
			CHANNELS 3 Xrotation Zrotation Yrotation
			JOINT lFoot
			{
				OFFSET 0.000000 -19.190928 -1.224953 
				CHANNELS 3 Xrotation Yrotation Zrotation
				End Site
				{
					OFFSET 0.000000 -2.449906 4.627600 
				}
			}
		}
	}
	JOINT rThigh
	{
		OFFSET -5.308129 -1.633274 1.361059 
		CHANNELS 3 Xrotation Zrotation Yrotation
		JOINT rShin
		{
			OFFSET 2.041588 -20.007561 0.000000 
			CHANNELS 3 Xrotation Zrotation Yrotation
			JOINT rFoot
			{
				OFFSET 0.000000 -19.190928 -1.224953 
				CHANNELS 3 Xrotation Yrotation Zrotation
				End Site
				{
					OFFSET 0.000000 -2.449906 4.627600 
				}
			}
		}
	}
}
MOTION
Frames: 11
Frame Time: 0.011111
6.421565 50.995388 18.631889 -2.838536 0.494843 -15.102009 47.756203 1.752816 -0.543983 -30.726006 7.422200 -0.912266 -14.227984 1.490809 2.869108 21.436897 -9.208373 4.474975 2.656661 -4.973740 1.830115 -71.522873 -17.953491 24.336866 -73.400078 8.621037 18.796917 8.524705 12.647240 -32.522839 -4.438679 -1.473473 2.444106 57.078423 44.946827 19.973919 89.360153 -5.293928 34.704224 -8.534408 -12.637552 25.042826 -8.802347 3.005766 -2.150903 36.274876 -4.942929 -5.642643 -21.197216 -2.085367 -3.406860 -14.883652 -4.617982 8.815854 41.335377 4.534345 6.240783 -18.817173 9.298957 6.126411 
6.395812 51.003670 18.494537 -2.646900 0.008118 -15.310078 48.204327 2.059235 0.160396 -31.639280 7.268260 -0.856808 -13.897769 1.388320 2.814162 21.572962 -9.259309 4.299946 2.656661 -4.973740 1.830115 -71.448692 -17.730383 24.920832 -73.563103 8.584175 18.874826 8.524705 12.647240 -32.659561 -4.438679 -1.473473 2.444106 57.144707 45.873421 22.906763 88.279945 -4.276000 33.857101 -8.534408 -12.637552 24.251810 -9.450741 3.631893 -2.260964 36.494133 -4.913631 -5.681590 -21.068296 -1.711973 -3.265525 -14.953078 -3.856815 9.127907 41.147614 4.553860 6.212156 -18.553261 9.103444 6.028113 
6.390293 51.030338 18.428619 -2.513554 0.370361 -15.451375 47.970272 1.787802 0.344194 -31.969421 7.009574 -0.764067 -13.616331 1.198933 2.759562 21.763546 -9.137791 4.142382 2.656661 -4.973740 1.830115 -71.367836 -17.644161 25.436119 -73.676117 8.560586 18.938017 8.524705 12.647240 -33.177135 -4.438679 -1.473473 2.444106 56.781994 45.727749 25.487371 87.548828 -3.431636 33.145069 -8.534408 -12.637552 22.728374 -9.828275 3.230499 -2.362634 36.643841 -4.888366 -5.716630 -21.114580 -1.391833 -3.150823 -15.320811 -4.296576 8.960287 40.969296 4.573380 6.194003 -18.324678 9.477483 6.153493 
6.358101 51.068054 18.368526 -2.407544 0.526549 -15.671021 47.921387 1.549718 0.430993 -31.817921 6.776219 -0.674876 -14.074756 1.212556 2.757601 22.248333 -8.892276 4.150520 2.656661 -4.973740 1.830115 -71.072639 -18.099636 26.013140 -73.696846 8.555850 18.940351 8.524705 12.647240 -32.864635 -4.438679 -1.473473 2.444106 56.982044 46.777500 28.042704 86.951706 -2.579995 32.338806 -8.534408 -12.637552 21.175640 -10.109652 3.074076 -2.560867 36.770889 -4.903883 -5.713225 -21.277943 -1.037352 -3.005830 -15.537683 -4.432677 8.963037 40.841187 4.573332 6.192610 -18.054155 9.796868 6.228629 
6.316710 51.080315 18.299545 -2.397516 0.673093 -15.735584 47.948868 1.278270 0.580482 -31.954487 6.711473 -0.600331 -14.086698 1.021127 2.674792 22.579792 -8.514092 3.982244 2.656661 -4.973740 1.830115 -71.036804 -18.256666 26.600960 -73.780853 8.541351 18.989649 8.524705 12.647240 -32.513073 -4.438679 -1.473473 2.444106 56.905437 47.542191 30.358334 86.555275 -1.859250 31.476496 -8.534408 -12.637552 19.437359 -10.201336 2.909092 -2.825498 36.761040 -4.903856 -5.712355 -21.340591 -0.768325 -2.887842 -15.677892 -4.530750 9.014316 40.772263 4.589419 6.153548 -17.899364 9.874503 6.266087 
6.260910 51.074184 18.215538 -2.257554 0.638597 -15.633280 47.870049 1.192182 0.879981 -32.012520 6.657443 -0.518171 -14.206380 0.979163 2.565281 22.839172 -8.365438 3.760243 2.656661 -4.973740 1.830115 -70.984390 -18.550789 27.312107 -73.830162 8.527378 19.015697 8.524705 12.647240 -32.474014 -4.438679 -1.473473 2.444106 56.786594 48.444962 32.420929 86.323563 -1.373924 30.506599 -8.534408 -12.637552 17.747906 -10.435252 2.987187 -3.070841 36.770889 -4.903881 -5.713223 -21.417929 -0.518027 -2.781089 -15.887053 -4.374863 8.973861 40.722111 4.592981 6.169270 -17.618288 9.813425 6.199862 
6.193461 51.073566 18.134903 -2.098177 0.704638 -15.583280 47.817783 0.918404 1.138995 -32.013317 6.716662 -0.409767 -14.481859 0.877601 2.472298 23.046604 -8.130976 3.571059 2.656661 -4.973740 1.830115 -70.850868 -19.178696 28.222292 -73.543892 8.590281 18.862282 8.524705 12.647240 -32.640026 -4.438679 -1.473473 2.444106 56.787678 49.393127 34.149593 86.171669 -1.285635 29.444078 -8.534408 -12.637552 16.488140 -10.756913 2.986902 -3.378146 36.772312 -4.888241 -5.718073 -21.525877 -0.352761 -2.726334 -16.165884 -4.286726 9.024199 40.703075 4.589718 6.156779 -17.547180 9.752004 6.188709 
6.126623 51.065296 18.069601 -2.117799 0.712036 -15.505812 47.952255 0.688270 1.290568 -32.123531 6.846905 -0.356851 -14.610528 0.882552 2.391176 23.227428 -8.091539 3.403207 2.656661 -4.973740 1.830115 -70.772255 -19.619871 29.043268 -73.265671 8.647000 18.721828 8.524705 12.647240 -32.874401 -4.438679 -1.473473 2.444106 57.097610 50.361633 35.810986 85.914207 -1.667198 28.280107 -8.534408 -12.637552 15.345562 -10.779253 3.016741 -3.377964 36.772312 -4.888239 -5.718073 -21.629604 -0.059523 -2.603800 -16.109596 -4.228187 9.021344 40.673279 4.593114 6.155390 -17.548363 9.775877 6.180093 
6.060094 51.058239 18.027597 -2.177352 0.775801 -15.216375 47.970737 0.573660 1.301322 -32.163239 6.871139 -0.336199 -14.662451 0.878438 2.251346 23.331350 -7.994747 3.142500 2.656661 -4.973740 1.830115 -70.787102 -19.834461 29.580650 -73.224022 8.654396 18.697773 8.524705 12.647240 -33.255260 -4.438679 -1.473473 2.444106 57.656872 51.088058 37.391033 85.308327 -2.545436 26.983160 -8.534408 -12.637552 14.603374 -10.660289 2.899324 -3.506919 36.711418 -4.903934 -5.717761 -21.601730 0.232418 -2.503006 -15.979354 -4.315892 8.828861 40.653374 4.599445 6.146208 -17.593510 9.794605 6.196582 
5.983139 51.065296 17.982834 -2.199918 0.774771 -14.855354 47.969189 0.464802 1.392354 -32.233829 6.975600 -0.314022 -14.841147 0.819896 2.116626 23.511009 -7.790460 2.880789 2.656661 -4.973740 1.830115 -70.791878 -20.039490 30.199203 -73.326576 8.633596 18.758427 8.524705 12.647240 -33.391979 -4.438679 -1.473473 2.444106 58.313709 51.801495 38.672443 84.120674 -3.809379 25.547293 -8.534408 -12.637552 14.202983 -10.656501 2.830274 -3.827587 36.643841 -4.888361 -5.716625 -21.553659 0.692813 -2.332637 -15.914802 -4.296693 8.624415 40.633156 4.609232 6.138209 -17.625990 9.661249 6.156968 
5.906797 51.070198 17.944204 -2.270728 0.755890 -14.396894 48.095177 0.394432 1.458457 -32.492168 7.117513 -0.323401 -15.059679 0.820361 1.936052 23.910162 -7.663905 2.529981 2.656661 -4.973740 1.830115 -70.736076 -20.187157 30.939678 -73.326660 8.632959 18.748684 8.524705 12.647240 -33.577526 -4.438679 -1.473473 2.444106 58.992214 52.347664 39.654579 82.277496 -5.222901 24.009644 -8.534408 -12.637552 13.431500 -10.564616 2.802171 -4.182926 36.543438 -4.913528 -5.686692 -21.477449 1.048081 -2.193572 -15.760043 -4.277040 8.423622 40.633076 4.602855 6.155349 -17.641771 9.560863 6.113227 
